<svg width="34" height="34" viewBox="0 0 34 34" fill="none" xmlns="http://www.w3.org/2000/svg">
<path d="M32 30.0952V13.9048C32 13.6091 31.9322 13.3174 31.802 13.0529C31.6719 12.7884 31.4829 12.5584 31.25 12.381L18.125 2.38095C17.8004 2.13367 17.4057 2 17 2C16.5943 2 16.1996 2.13367 15.875 2.38095L2.75 12.381C2.51713 12.5584 2.32813 12.7884 2.19795 13.0529C2.06777 13.3174 2 13.6091 2 13.9048V30.0952C2 30.6004 2.19754 31.0849 2.54918 31.4421C2.90081 31.7993 3.37772 32 3.875 32H11.375C11.8723 32 12.3492 31.7993 12.7008 31.4421C13.0525 31.0849 13.25 30.6004 13.25 30.0952V24.381C13.25 23.8758 13.4475 23.3913 13.7992 23.0341C14.1508 22.6769 14.6277 22.4762 15.125 22.4762H18.875C19.3723 22.4762 19.8492 22.6769 20.2008 23.0341C20.5525 23.3913 20.75 23.8758 20.75 24.381V30.0952C20.75 30.6004 20.9475 31.0849 21.2992 31.4421C21.6508 31.7993 22.1277 32 22.625 32H30.125C30.6223 32 31.0992 31.7993 31.4508 31.4421C31.8025 31.0849 32 30.6004 32 30.0952Z" stroke="#05B70C" stroke-width="3" stroke-linecap="round" stroke-linejoin="round"/>
</svg>
