<svg width="65" height="65" viewBox="0 0 65 65" fill="none" xmlns="http://www.w3.org/2000/svg">
<rect width="65" height="65" rx="32.5" fill="#C3F7E4"/>
<path d="M47 43.0952V26.9048C47 26.6091 46.9322 26.3174 46.802 26.0529C46.6719 25.7884 46.4829 25.5584 46.25 25.381L33.125 15.381C32.8004 15.1337 32.4057 15 32 15C31.5943 15 31.1996 15.1337 30.875 15.381L17.75 25.381C17.5171 25.5584 17.3281 25.7884 17.1979 26.0529C17.0678 26.3174 17 26.6091 17 26.9048V43.0952C17 43.6004 17.1975 44.0849 17.5492 44.4421C17.9008 44.7993 18.3777 45 18.875 45H26.375C26.8723 45 27.3492 44.7993 27.7008 44.4421C28.0525 44.0849 28.25 43.6004 28.25 43.0952V37.381C28.25 36.8758 28.4475 36.3913 28.7992 36.0341C29.1508 35.6769 29.6277 35.4762 30.125 35.4762H33.875C34.3723 35.4762 34.8492 35.6769 35.2008 36.0341C35.5525 36.3913 35.75 36.8758 35.75 37.381V43.0952C35.75 43.6004 35.9475 44.0849 36.2992 44.4421C36.6508 44.7993 37.1277 45 37.625 45H45.125C45.6223 45 46.0992 44.7993 46.4508 44.4421C46.8025 44.0849 47 43.6004 47 43.0952Z" stroke="#00BC78" stroke-width="3" stroke-linecap="round" stroke-linejoin="round"/>
</svg>
