<svg width="65" height="65" viewBox="0 0 65 65" fill="none" xmlns="http://www.w3.org/2000/svg">
<rect width="65" height="65" rx="32.5" fill="#C3F6E4"/>
<path d="M33 29.25C36.1066 29.25 38.625 26.7316 38.625 23.625C38.625 20.5184 36.1066 18 33 18C29.8934 18 27.375 20.5184 27.375 23.625C27.375 26.7316 29.8934 29.25 33 29.25Z" stroke="#00BC78" stroke-width="3"/>
<path d="M18 44.25C18 42.2609 18.7902 40.3532 20.1967 38.9467C21.6032 37.5402 23.5109 36.75 25.5 36.75H40.5C42.4891 36.75 44.3968 37.5402 45.8033 38.9467C47.2098 40.3532 48 42.2609 48 44.25C48 45.2446 47.6049 46.1984 46.9016 46.9016C46.1984 47.6049 45.2446 48 44.25 48H21.75C20.7554 48 19.8016 47.6049 19.0983 46.9016C18.3951 46.1984 18 45.2446 18 44.25Z" stroke="#00BC78" stroke-width="3" stroke-linejoin="round"/>
</svg>
