<svg xmlns="http://www.w3.org/2000/svg" width="24" height="24" viewBox="0 0 24 24" fill="none">
  <path d="M8.875 21.0999L17.3 12.6999C17.4 12.5999 17.471 12.4916 17.513 12.3749C17.555 12.2582 17.5757 12.1332 17.575 11.9999C17.575 11.8666 17.5543 11.7416 17.513 11.6249C17.4717 11.5082 17.4007 11.3999 17.3 11.2999L8.875 2.8749C8.64167 2.64157 8.35 2.5249 8 2.5249C7.65 2.5249 7.35 2.6499 7.1 2.8999C6.85 3.1499 6.725 3.44157 6.725 3.7749C6.725 4.10824 6.85 4.3999 7.1 4.6499L14.45 11.9999L7.1 19.3499C6.86667 19.5832 6.75 19.8709 6.75 20.2129C6.75 20.5549 6.875 20.8506 7.125 21.0999C7.375 21.3499 7.66667 21.4749 8 21.4749C8.33333 21.4749 8.625 21.3499 8.875 21.0999Z" fill="#353A40"/>
</svg>