<svg width="22" height="22" viewBox="0 0 22 22" fill="none" xmlns="http://www.w3.org/2000/svg">
<g id="material-symbols:arrow-back-ios-new-rounded">
<path id="Vector" d="M13.8645 19.3418L6.14162 11.6418C6.04996 11.5501 5.98487 11.4508 5.94637 11.3439C5.90787 11.2369 5.88893 11.1223 5.88954 11.0001C5.88954 10.8779 5.90848 10.7633 5.94637 10.6564C5.98426 10.5494 6.04935 10.4501 6.14162 10.3584L13.8645 2.63553C14.0784 2.42164 14.3458 2.3147 14.6666 2.3147C14.9875 2.3147 15.2625 2.42928 15.4916 2.65845C15.7208 2.88761 15.8354 3.15498 15.8354 3.46053C15.8354 3.76609 15.7208 4.03345 15.4916 4.26261L8.75412 11.0001L15.4916 17.7376C15.7055 17.9515 15.8125 18.2152 15.8125 18.5287C15.8125 18.8422 15.6979 19.1132 15.4687 19.3418C15.2395 19.5709 14.9722 19.6855 14.6666 19.6855C14.3611 19.6855 14.0937 19.5709 13.8645 19.3418Z" fill="#868686"/>
</g>
</svg>
