<svg xmlns="http://www.w3.org/2000/svg" width="22" height="22" viewBox="0 0 22 22" fill="none">
  <path d="M13.8645 19.3417L6.14162 11.6417C6.04996 11.55 5.98487 11.4507 5.94637 11.3437C5.90787 11.2368 5.88893 11.1222 5.88954 11C5.88954 10.8778 5.90848 10.7632 5.94637 10.6562C5.98426 10.5493 6.04935 10.45 6.14162 10.3583L13.8645 2.63541C14.0784 2.42152 14.3458 2.31458 14.6666 2.31458C14.9875 2.31458 15.2625 2.42916 15.4916 2.65833C15.7208 2.88749 15.8354 3.15485 15.8354 3.46041C15.8354 3.76596 15.7208 4.03333 15.4916 4.26249L8.75412 11L15.4916 17.7375C15.7055 17.9514 15.8125 18.2151 15.8125 18.5286C15.8125 18.8421 15.6979 19.1131 15.4687 19.3417C15.2395 19.5708 14.9722 19.6854 14.6666 19.6854C14.3611 19.6854 14.0937 19.5708 13.8645 19.3417Z" fill="#868686"/>
</svg>