<svg xmlns="http://www.w3.org/2000/svg" width="20" height="20" viewBox="0 0 20 20" fill="none">
  <path d="M7.49996 13.4749L4.60829 10.5833C4.45248 10.4275 4.24115 10.3399 4.02079 10.3399C3.80044 10.3399 3.58911 10.4275 3.43329 10.5833C3.27748 10.7391 3.18994 10.9504 3.18994 11.1708C3.18994 11.2799 3.21143 11.3879 3.25319 11.4887C3.29494 11.5895 3.35614 11.6811 3.43329 11.7583L6.91663 15.2416C7.24163 15.5666 7.76663 15.5666 8.09163 15.2416L16.9083 6.42494C17.0641 6.26913 17.1516 6.0578 17.1516 5.83744C17.1516 5.61709 17.0641 5.40576 16.9083 5.24994C16.7525 5.09413 16.5411 5.00659 16.3208 5.00659C16.1004 5.00659 15.8891 5.09413 15.7333 5.24994L7.49996 13.4749Z" fill="#05B70C"/>
</svg>