<svg xmlns="http://www.w3.org/2000/svg" width="27" height="27" viewBox="0 0 27 27" fill="none">
  <path d="M20.25 14.6227H14.625V20.2477C14.625 20.5461 14.5065 20.8323 14.2955 21.0432C14.0845 21.2542 13.7984 21.3727 13.5 21.3727C13.2016 21.3727 12.9155 21.2542 12.7045 21.0432C12.4935 20.8323 12.375 20.5461 12.375 20.2477V14.6227H6.75C6.45163 14.6227 6.16548 14.5042 5.95451 14.2932C5.74353 14.0823 5.625 13.7961 5.625 13.4977C5.625 13.1994 5.74353 12.9132 5.95451 12.7022C6.16548 12.4913 6.45163 12.3727 6.75 12.3727H12.375V6.74774C12.375 6.44937 12.4935 6.16322 12.7045 5.95225C12.9155 5.74127 13.2016 5.62274 13.5 5.62274C13.7984 5.62274 14.0845 5.74127 14.2955 5.95225C14.5065 6.16322 14.625 6.44937 14.625 6.74774V12.3727H20.25C20.5484 12.3727 20.8345 12.4913 21.0455 12.7022C21.2565 12.9132 21.375 13.1994 21.375 13.4977C21.375 13.7961 21.2565 14.0823 21.0455 14.2932C20.8345 14.5042 20.5484 14.6227 20.25 14.6227Z" fill="white"/>
</svg>